<svg xmlns="http://www.w3.org/2000/svg" xmlns:xlink="http://www.w3.org/1999/xlink" width="107.986" height="31.462" viewBox="0 0 107.986 31.462"><defs><style>.a{fill:#433f3f;}.b{fill:#ec7000;}.c{fill:#d62817;}.d{fill:url(#a);}</style><linearGradient id="a" x1="0.793" y1="0.585" x2="0.545" y2="0.216" gradientUnits="objectBoundingBox"><stop offset="0" stop-color="#d62616" stop-opacity="0"/><stop offset="1" stop-color="#d62616"/></linearGradient></defs><g transform="translate(-1084.93 -440.82)"><g transform="translate(1114.938 442.278)"><g transform="translate(10.597 0.001)"><path class="a" d="M411.925,668.579h-1.781l-3.136,10.971h3.485l2.649-9.267a1.352,1.352,0,0,0-.157-1.206A1.232,1.232,0,0,0,411.925,668.579Z" transform="translate(-407.008 -664.367)"/><path class="a" d="M414.576,665.862a2.5,2.5,0,0,1-2.241,1.744,1.271,1.271,0,0,1-1.244-1.744,2.492,2.492,0,0,1,2.241-1.741A1.268,1.268,0,0,1,414.576,665.862Z" transform="translate(-407.229 -664.121)"/></g><path class="a" d="M429.289,667.736a5.161,5.161,0,0,0-2,.389,4.625,4.625,0,0,0-.865.5l.8-2.807a1.343,1.343,0,0,0-.157-1.2,1.222,1.222,0,0,0-1.055-.5h-1.7L419.98,679.3h3.394l1.669-5.835a4.335,4.335,0,0,1,1.1-2.022,2.14,2.14,0,0,1,1.577-.668,1.089,1.089,0,0,1,1.117.668,3.125,3.125,0,0,1-.059,2.022l-1.669,5.835h3.434l1.635-5.719a5.928,5.928,0,0,0-.047-4.22A2.922,2.922,0,0,0,429.289,667.736Z" transform="translate(-397.126 -664.12)"/><path class="a" d="M461.573,667.923a7.936,7.936,0,0,0-4.52,1.3,2.943,2.943,0,0,0-2.648-1.3,5.162,5.162,0,0,0-2,.389,4.759,4.759,0,0,0-1.046.634,1.2,1.2,0,0,0-1.265-1.015h-1.7L445.091,679.5h3.394l1.671-5.847a4.344,4.344,0,0,1,1.1-2.021,2.139,2.139,0,0,1,1.577-.668,1.089,1.089,0,0,1,1.117.668,3.121,3.121,0,0,1-.059,2.021l-1.671,5.847h3.437l1.672-5.847a4.342,4.342,0,0,1,1.1-2.021,2.143,2.143,0,0,1,1.577-.668,1.093,1.093,0,0,1,1.119.668,3.117,3.117,0,0,1-.06,2.021l-1.67,5.847h3.433l1.637-5.729a5.928,5.928,0,0,0-.047-4.22A2.919,2.919,0,0,0,461.573,667.923Z" transform="translate(-398.512 -664.33)"/><path class="a" d="M433.9,674.515l1.886-6.6h3.433l-1.886,6.6c-.557,1.949,1.274,1.94,1.274,1.94a2.572,2.572,0,0,0,2.458-1.94l1.885-6.6h3.395l-1.886,6.6a6.828,6.828,0,0,1-6.721,4.981S432.38,679.846,433.9,674.515Z" transform="translate(-397.88 -664.33)"/><path class="a" d="M477.3,673.567a5.933,5.933,0,0,0-.047-4.22,2.92,2.92,0,0,0-2.836-1.627,5.147,5.147,0,0,0-2,.389,4.591,4.591,0,0,0-.866.5l.8-2.789a1.35,1.35,0,0,0-.156-1.2,1.226,1.226,0,0,0-1.056-.5h-1.7l-2.878,10.072c-1.576,5.513,4,5.1,4,5.1S475.633,679.407,477.3,673.567Zm-3.4-.116a4.864,4.864,0,0,1-1.13,2.135,2.139,2.139,0,0,1-1.578.669,1.126,1.126,0,0,1-1.157-.673,3.409,3.409,0,0,1,.133-2.132,4.348,4.348,0,0,1,1.1-2.022,2.144,2.144,0,0,1,1.578-.668,1.09,1.09,0,0,1,1.116.668A3.111,3.111,0,0,1,473.9,673.45Z" transform="translate(-399.681 -664.12)"/><path class="a" d="M419.76,665.821a1.344,1.344,0,0,0-.157-1.2,1.177,1.177,0,0,0-1.016-.5h-1.775l-3.659,12.827c-.5,1.768.368,2.217,1.192,2.283.581.047,1.279.072,1.964.072.44,0,.863-.01,1.22-.031l.351-.022.785-2.746h-1.533c-.419,0-.375-.153-.334-.3l1.579-5.55h.429a2.195,2.195,0,0,0,1.327-.473,2.283,2.283,0,0,0,.854-1.223l.263-.915h-2.126Z" transform="translate(-396.741 -664.12)"/><path class="a" d="M406.81,673.567a5.933,5.933,0,0,0-.047-4.22,2.92,2.92,0,0,0-2.836-1.627,5.154,5.154,0,0,0-2,.389,4.623,4.623,0,0,0-.866.5l.8-2.789a1.35,1.35,0,0,0-.156-1.2,1.226,1.226,0,0,0-1.056-.5h-1.7l-2.879,10.072c-1.576,5.513,4,5.1,4,5.1S405.14,679.407,406.81,673.567Zm-3.4-.116a4.864,4.864,0,0,1-1.13,2.135,2.136,2.136,0,0,1-1.578.669,1.127,1.127,0,0,1-1.157-.673,3.409,3.409,0,0,1,.133-2.132,4.348,4.348,0,0,1,1.1-2.022,2.145,2.145,0,0,1,1.578-.668,1.09,1.09,0,0,1,1.116.668A3.111,3.111,0,0,1,403.41,673.45Z" transform="translate(-395.792 -664.12)"/></g><g transform="translate(1128.797 460.597)"><path class="b" d="M425.479,692.888a4.564,4.564,0,0,1-3.139,1.133,2.67,2.67,0,0,1-2.414-1.105c-.731-1.033-.394-2.322.052-4.021s.783-2.988,2.057-4.022a4.512,4.512,0,0,1,2.993-1.1c2.513,0,3.141,1.684,2.94,3.341h-2.415c.009-.764-.279-1.132-1.1-1.132a1.531,1.531,0,0,0-1.063.439c-.3.3-.523.636-1.006,2.478s-.439,2.195-.3,2.492a.865.865,0,0,0,.836.425,1.755,1.755,0,0,0,1.175-.4,2.046,2.046,0,0,0,.653-1.077l.038-.142h-1.442l.543-2.067h3.829l-.367,1.4A5.793,5.793,0,0,1,425.479,692.888Z" transform="translate(-419.499 -683.77)"/><path class="b" d="M425.2,693.911l2.645-10.081h.7a1.271,1.271,0,0,1,1.258,1.706l-1.616,6.167h4.1l-.579,2.209Z" transform="translate(-417.121 -683.745)"/><path class="b" d="M436.587,692.916a4.516,4.516,0,0,1-3.008,1.105,2.683,2.683,0,0,1-2.428-1.105c-.731-1.033-.392-2.322.052-4.021s.785-2.988,2.059-4.022a4.519,4.519,0,0,1,3.008-1.1,2.681,2.681,0,0,1,2.427,1.1c.732,1.034.394,2.322-.052,4.022S437.861,691.884,436.587,692.916Zm-.052-6.5a.886.886,0,0,0-.846-.439,1.563,1.563,0,0,0-1.075.439c-.3.3-.524.636-1.007,2.478s-.431,2.166-.289,2.464a.888.888,0,0,0,.842.453,1.581,1.581,0,0,0,1.08-.453c.3-.3.521-.623,1-2.464S436.678,686.715,436.535,686.418Z" transform="translate(-414.551 -683.77)"/><path class="b" d="M440.618,693.911h-4.254l2.645-10.081h4.049c2.032,0,2.807,1.174,2.35,2.917a3.457,3.457,0,0,1-1.594,2,1.806,1.806,0,0,1,.632,2.195A3.859,3.859,0,0,1,440.618,693.911Zm1.706-7.859h-1.5l-.431,1.642h1.5a1.055,1.055,0,0,0,1.081-.82C443.078,686.478,442.983,686.053,442.324,686.053Zm-.891,3.865h-1.619l-.465,1.769h1.621a1.127,1.127,0,0,0,1.112-.891C442.192,690.371,442.092,689.918,441.433,689.918Z" transform="translate(-412.201 -683.745)"/><path class="b" d="M448.255,693.911l-.059-1.5h-3.006l-.875,1.5H441.8L448,683.83h1.853l.911,10.081Zm-.266-6.259-1.584,2.69h1.7Z" transform="translate(-409.934 -683.745)"/><path class="b" d="M448.637,693.911l2.645-10.081h.707a1.262,1.262,0,0,1,1.25,1.693l-1.621,6.18h4.106l-.579,2.209Z" transform="translate(-407.087 -683.745)"/></g><path class="b" d="M405.5,688.288h-8.92c-.525,0-.786-.425-.585-.95a1.539,1.539,0,0,1,1.314-.95h8.92c.525,0,.786.425.585.95A1.541,1.541,0,0,1,405.5,688.288Z" transform="translate(718.921 -221.804)"/><path class="b" d="M405.5,688.288h-8.92c-.525,0-.786-.425-.585-.95a1.539,1.539,0,0,1,1.314-.95h8.92c.525,0,.786.425.585.95A1.541,1.541,0,0,1,405.5,688.288Z" transform="translate(785.934 -221.804)"/><g transform="translate(1084.93 440.82)"><path class="c" d="M81.857,78.412a2.417,2.417,0,0,0,2.357,3.361h.861l2.419-8.5H83.336Z" transform="translate(-81.71 -65.733)"/><path class="b" d="M104.807,76.646c-1.118-2.238-3.086-3.307-5.846-3.307H93.8l-2.415,8.55h3.664a1.306,1.306,0,0,1,1.4.762,3.933,3.933,0,0,1-.072,2.543,6.149,6.149,0,0,1-1.416,2.691,2.675,2.675,0,0,1-1.974.843,1.408,1.408,0,0,1-1.449-.849,4.323,4.323,0,0,1,.166-2.685l4.5-15.863a2.8,2.8,0,0,0-.323-2.485,2.513,2.513,0,0,0-2.175-1.03H88.709l-5.93,20.872c-3.248,11.425,8.234,10.577,8.234,10.577s10.452.232,13.892-11.875C105.918,81.827,105.885,78.884,104.807,76.646Z" transform="translate(-81.708 -65.816)"/><path class="d" d="M104.87,85.252c1.013-3.541.98-6.468-.1-8.693-1.118-2.225-3.086-3.287-5.846-3.287H95.042l-2.415,8.5h2.385a1.308,1.308,0,0,1,1.4.757,3.888,3.888,0,0,1-.072,2.528" transform="translate(-81.674 -65.722)"/></g></g></svg>