<svg id="Layer_1" enable-background="new 0 0 256 256" height="512" viewBox="0 0 256 256" width="512" xmlns="http://www.w3.org/2000/svg"><path d="m217.479 16.595h-179.268c-12.076 0-21.866 9.79-21.866 21.866v179.208c0 12.076 9.79 21.866 21.866 21.866h179.268c12.076 0 21.866-9.79 21.866-21.866v-179.208c0-12.077-9.79-21.866-21.866-21.866z" fill="#fce8cb"/><path d="m217.479 15.095h-108.247c-.829 0-1.5.672-1.5 1.5s.671 1.5 1.5 1.5h108.247c11.229 0 20.366 9.137 20.366 20.366v179.208c0 11.229-9.136 20.366-20.366 20.366h-179.268c-11.23 0-20.366-9.137-20.366-20.366v-179.208c0-11.229 9.136-20.366 20.366-20.366h58.248c.829 0 1.5-.672 1.5-1.5s-.671-1.5-1.5-1.5h-58.248c-12.884 0-23.366 10.482-23.366 23.366v179.208c0 12.884 10.482 23.366 23.366 23.366h179.268c12.884 0 23.366-10.482 23.366-23.366v-179.208c0-12.884-10.482-23.366-23.366-23.366z" fill="#3a312a"/><path d="m114.479 119.567h-76.268c-12.076 0-21.866 9.79-21.866 21.866v76.236c0 12.076 9.79 21.866 21.866 21.866h76.268c12.076 0 21.866-9.79 21.866-21.866v-76.236c0-12.076-9.79-21.866-21.866-21.866z" fill="#ef6d7a"/><path d="m136.345 177.32c.829 0 1.5-.672 1.5-1.5v-34.388c0-12.884-10.482-23.365-23.366-23.365h-76.268c-12.884 0-23.366 10.481-23.366 23.365v76.236c0 12.884 10.482 23.366 23.366 23.366h76.268c12.884 0 23.366-10.482 23.366-23.366v-28.633c0-.828-.671-1.5-1.5-1.5s-1.5.672-1.5 1.5v28.633c0 11.229-9.136 20.366-20.366 20.366h-76.268c-11.23 0-20.366-9.137-20.366-20.366v-76.236c0-11.229 9.136-20.365 20.366-20.365h76.268c11.229 0 20.366 9.136 20.366 20.365v34.388c0 .828.671 1.5 1.5 1.5z" fill="#3a312a"/><path d="m217.878 31.661-37.738-.068c-3.586-.01-6.486 2.89-6.486 6.467-.019 3.557 2.871 6.467 6.457 6.486l22.04.039-62.891 62.891c-2.53 2.53-2.53 6.633 0 9.164 2.531 2.531 6.634 2.53 9.164 0l62.939-62.948-.039 22.176c-.01 3.557 2.871 6.476 6.467 6.486.686 0 1.353-.116 1.991-.309 2.6-.841 4.476-3.277 4.476-6.167l.087-37.729c0-3.569-2.89-6.488-6.467-6.488z" fill="#8ac5dc"/><path d="m217.88 30.161-37.737-.067c-2.127.004-4.141.82-5.65 2.325s-2.34 3.509-2.34 5.634c-.012 2.123.81 4.125 2.313 5.636 1.501 1.509 3.503 2.347 5.642 2.358l18.427.032-60.336 60.337c-3.111 3.111-3.111 8.173 0 11.284 1.507 1.508 3.511 2.338 5.643 2.338 2.131 0 4.135-.83 5.643-2.338l60.372-60.381-.032 18.543c-.006 2.124.817 4.125 2.317 5.635 1.503 1.513 3.508 2.35 5.649 2.355.795 0 1.613-.126 2.453-.382 3.298-1.066 5.514-4.119 5.514-7.591l.087-37.729v-.004c0-4.402-3.574-7.985-7.965-7.985zm4.878 45.715c0 2.17-1.381 4.075-3.413 4.732-.532.162-1.055.244-1.55.244-1.335-.004-2.587-.525-3.525-1.47-.935-.941-1.449-2.189-1.445-3.514l.039-22.175c.001-.607-.364-1.155-.925-1.389-.561-.233-1.207-.104-1.636.325l-62.939 62.948c-.941.94-2.191 1.459-3.521 1.459s-2.581-.519-3.521-1.459c-1.941-1.941-1.941-5.101 0-7.042l62.891-62.892c.429-.429.557-1.073.326-1.634-.231-.56-.777-.926-1.384-.927l-22.034-.038c-1.335-.007-2.587-.531-3.525-1.475-.936-.94-1.447-2.185-1.44-3.512 0-1.33.518-2.579 1.459-3.518.937-.935 2.183-1.449 3.511-1.449h.014l37.741.067c2.738 0 4.965 2.235 4.967 4.982z" fill="#3a312a"/><path d="m72.312 50.843c-.974 11.564-13.025 13.389-13.025 13.389 10.347.487 12.925 14.059 12.925 14.059.221-9.677 13.321-14.202 13.321-14.202-9.813-.587-13.221-13.246-13.221-13.246z" fill="#d6df58"/><path d="m85.623 62.593c-8.605-.516-11.832-12.025-11.864-12.142-.191-.702-.847-1.153-1.583-1.102-.725.066-1.298.642-1.359 1.367-.86 10.216-11.313 11.964-11.754 12.032-.763.116-1.313.791-1.273 1.561.04.771.657 1.385 1.427 1.421 9.028.426 11.499 12.719 11.523 12.844.137.711.759 1.217 1.472 1.217.042 0 .084-.002.126-.005.764-.064 1.357-.693 1.375-1.46.194-8.509 12.191-12.777 12.313-12.819.675-.234 1.092-.914.994-1.622-.1-.708-.683-1.249-1.397-1.292zm-13.566 10.345c-1.357-3.13-3.709-6.907-7.587-8.876 2.931-1.405 6.409-3.913 8.202-8.273 1.551 3.071 4.199 6.881 8.333 8.723-3.006 1.639-6.922 4.404-8.948 8.426z" fill="#3a312a"/><path d="m50.613 67.823c-.689 8.179-9.212 9.47-9.212 9.47 7.318.344 9.142 9.944 9.142 9.944.156-6.844 9.422-10.045 9.422-10.045-6.941-.414-9.352-9.369-9.352-9.369z" fill="#d6df58"/><path d="m60.055 75.696c-5.767-.346-7.973-8.187-7.994-8.266-.19-.702-.85-1.16-1.582-1.102-.726.065-1.299.643-1.36 1.368-.579 6.871-7.646 8.066-7.942 8.113-.763.116-1.313.791-1.273 1.561.04.771.657 1.385 1.427 1.421 6.036.284 7.724 8.645 7.739 8.727.135.712.759 1.22 1.472 1.22.042 0 .083-.002.125-.005.765-.063 1.358-.693 1.376-1.461.13-5.709 8.332-8.633 8.413-8.661.676-.233 1.094-.913.996-1.622s-.683-1.25-1.397-1.293zm-9.585 6.794c-.924-1.886-2.34-3.947-4.447-5.279 1.856-1.041 3.697-2.63 4.871-4.917 1.057 1.874 2.655 3.955 4.941 5.225-1.85 1.1-3.989 2.739-5.365 4.971z" fill="#3a312a"/><path d="m50.613 41.166c-.689 8.179-9.212 9.471-9.212 9.471 7.318.344 9.142 9.944 9.142 9.944.156-6.844 9.422-10.045 9.422-10.045-6.941-.416-9.352-9.37-9.352-9.37z" fill="#d6df58"/><path d="m60.054 49.038c-5.766-.345-7.972-8.186-7.994-8.265-.19-.701-.85-1.17-1.582-1.102-.726.065-1.299.643-1.36 1.368-.579 6.871-7.646 8.066-7.942 8.113-.763.116-1.313.791-1.273 1.561.04.771.657 1.385 1.427 1.421 6.036.284 7.724 8.645 7.739 8.727.135.712.759 1.22 1.472 1.22.042 0 .083-.002.125-.005.765-.063 1.358-.693 1.376-1.461.13-5.709 8.332-8.634 8.413-8.662.677-.234 1.094-.913.996-1.622-.097-.709-.682-1.251-1.397-1.293zm-9.584 6.795c-.924-1.886-2.34-3.947-4.447-5.279 1.856-1.041 3.697-2.63 4.871-4.917 1.057 1.874 2.654 3.955 4.941 5.224-1.85 1.1-3.989 2.74-5.365 4.972z" fill="#3a312a"/><path d="m217.475 18.095h-15c8.59 0 15.96 5.35 18.95 12.9 2.62 1.31 4.42 4.02 4.42 7.15v.01l-.09 37.73c0 2.45-1.1 4.69-2.91 6.16v135.62c0 11.23-9.14 20.37-20.37 20.37h15c11.23 0 20.37-9.14 20.37-20.37v-179.2c0-11.23-9.14-20.37-20.37-20.37z" fill="#decaad"/></svg>