<?xml version="1.0" encoding="iso-8859-1"?>
<!-- Generator: Adobe Illustrator 21.0.0, SVG Export Plug-In . SVG Version: 6.00 Build 0)  -->
<svg version="1.1" id="Capa_1" xmlns="http://www.w3.org/2000/svg" xmlns:xlink="http://www.w3.org/1999/xlink" x="0px" y="0px"
	 viewBox="0 0 512 512" style="enable-background:new 0 0 512 512;" xml:space="preserve">
<path style="fill:#5A5A5A;" d="M138.21,101.182l-59.207,35.517c-7.104,4.263-9.404,13.477-5.142,20.581
	c2.813,4.688,7.778,7.28,12.876,7.28c2.622,0,5.288-0.688,7.705-2.139l60.672-36.398L138.21,101.182z"/>
<path style="fill:#444444;" d="M421.249,116.279c-0.615,0-1.245-0.044-1.875-0.117L268.686,97.324
	c-8.218-1.025-14.048-8.525-13.022-16.743c1.04-8.203,8.423-14.077,16.743-13.022l150.688,18.838
	c8.218,1.025,14.048,8.525,13.022,16.743C435.165,110.728,428.705,116.279,421.249,116.279z"/>
<path style="fill:#FF7816;" d="M451,150c-24.814,0-45-20.186-45-45s20.186-45,45-45s45,20.186,45,45S475.814,150,451,150z"/>
<path style="fill:#FF9F00;" d="M61,210c-24.814,0-45-20.186-45-45s20.186-45,45-45s45,20.186,45,45S85.814,210,61,210z"/>
<path style="fill:#FF7816;" d="M196,0c-41.4,0-75,33.6-75,75s33.6,75,75,75s75-33.6,75-75S237.4,0,196,0z"/>
<path style="fill:#FF4B00;" d="M271,75c0,41.4-33.6,75-75,75V0C237.4,0,271,33.6,271,75z"/>
<path style="fill:#FFCEBF;" d="M436,213.6c0,0,0,122.999,0,126c0,62.999-30,77.999-30,123.6V497c0,8.399-6.599,15-15,15H181
	c-8.401,0-15-6.601-15-15v-24.8c0-20.099-7.8-38.699-21.899-53.101C136.3,409.2,106,391.5,106,350.099V240c0-16.5,13.5-30,30-30
	s30,13.5,30,30V93.6c0-17.401,13.2-31.5,30-33.3c1.199-0.3,2.401-0.3,3.6-0.3c18.9,0,34.4,15,34.4,33.6v90
	c0-18.6,14.5-33.6,33.4-33.6c18.6,0,33.6,15,33.6,33.6c0-18.6,15-33.6,33.6-33.6c18.9,0,34.4,15,34.4,33.6v30
	c0-18.6,14.5-33.6,33.4-33.6C421,180,436,195,436,213.6z"/>
<path style="fill:#FFBFAB;" d="M436,213.6c0,0,0,122.999,0,126c0,62.999-30,77.999-30,123.6V497c0,8.399-6.599,15-15,15H196V60.3
	c1.199-0.3,2.401-0.3,3.6-0.3c18.9,0,34.4,15,34.4,33.6v90c0-18.6,14.5-33.6,33.4-33.6c18.6,0,33.6,15,33.6,33.6
	c0-18.6,15-33.6,33.6-33.6c18.9,0,34.4,15,34.4,33.6v30c0-18.6,14.5-33.6,33.4-33.6C421,180,436,195,436,213.6z"/>
<g>
</g>
<g>
</g>
<g>
</g>
<g>
</g>
<g>
</g>
<g>
</g>
<g>
</g>
<g>
</g>
<g>
</g>
<g>
</g>
<g>
</g>
<g>
</g>
<g>
</g>
<g>
</g>
<g>
</g>
</svg>
