<svg xmlns="http://www.w3.org/2000/svg" xmlns:xlink="http://www.w3.org/1999/xlink" width="31" height="25" viewBox="0 0 31 25"><defs><path id="zysza" d="M108.23 200.07v-20.65h17.19v20.65zm8.6-18.65a6.61 6.61 0 0 0-6.6 6.58v6.61c0 .67.67 1.36 1.98 2.05a13.5 13.5 0 0 0 4.58 1.4h.07c1.34-.1 3.23-.68 4.59-1.4 1.3-.7 1.97-1.38 1.97-2.05V188a6.61 6.61 0 0 0-6.6-6.58z"/><path id="zyszb" d="M112.53 186.77v-9.11h14v9.11zm11.82-2s-.46-3.28-3.54-4.84c-3.08-1.55-6.09-.43-6.09-.43s.45 3.48 3.77 5.13c3.01 1.48 5.86.13 5.86.13z"/><path id="zyszc" d="M128.88 180.42c-3.27 0-7.17 2.33-7.17 7.91v1.75c0 4.26 3.34 7.93 7.17 7.93s7.17-3.67 7.17-7.93v-1.75c0-5.58-3.9-7.91-7.17-7.91z"/><path id="zyszd" d="M125.75 193.66h5.26c.38 0 .75-.95 1.05-1.19"/><path id="zysze" d="M132.35 190.9c-2.5 0-3.23-1.95-3.44-2.92h6.89c-.2.97-.93 2.91-3.45 2.91z"/><path id="zyszf" d="M135.12 188.49zm-.22.46c-.52.96-1.35 1.43-2.54 1.43-1.18 0-2-.45-2.52-1.38-.1-.16-.18-.34-.24-.51h5.51l-.2.46zm-6.58-1.48s.22 3.93 4.04 3.93 4.03-3.93 4.03-3.93z"/><path id="zyszg" d="M125.4 190.9c-2.5 0-3.23-1.95-3.44-2.92h6.89c-.2.97-.93 2.91-3.45 2.91z"/><path id="zyszh" d="M128.16 188.49zm-.22.46c-.52.96-1.35 1.43-2.54 1.43-1.18 0-2-.45-2.52-1.38-.1-.16-.18-.34-.24-.51h5.51l-.2.46zm-6.58-1.48s.22 3.93 4.04 3.93 4.03-3.93 4.03-3.93z"/><path id="zyszi" d="M125.35 193.43h6.31"/><path id="zyszj" d="M131.66 192.33v2.16"/><path id="zyszk" d="M138.2 185.12a3.32 3.32 0 0 0-1.44-2.39c.41-1.23.05-2.6-.91-3.48a3.4 3.4 0 0 0-3.58-.63 3.38 3.38 0 0 0-6.23-.8 3.4 3.4 0 0 0-3.47.68 3.31 3.31 0 0 0-.94 3.37 3.33 3.33 0 0 0 .07 6.2c.12-5.4 3.95-7.65 7.17-7.65 3.27 0 7.17 2.33 7.17 7.91v.26a3.33 3.33 0 0 0 2.15-3.47z"/><path id="zyszl" d="M116.83 181.42a6.61 6.61 0 0 0-6.6 6.58v6.61c0 .67.67 1.36 1.98 2.05a13.5 13.5 0 0 0 4.58 1.4h.07c1.34-.1 3.23-.68 4.59-1.4 1.3-.7 1.97-1.38 1.97-2.05V188a6.61 6.61 0 0 0-6.6-6.58z"/><path id="zyszn" d="M118.5 184.63c-3.33-1.65-3.78-5.13-3.78-5.13s3-1.12 6.09.43c3.08 1.56 3.54 4.83 3.54 4.83s-2.85 1.35-5.86-.13z"/><path id="zyszp" d="M110.22 188a6.61 6.61 0 0 1 6.6-6.58c.29 0 .57.02.85.06l1.17-3.65s-5.88-1.22-9.13 3.6c-1.86 2.73-1.7 7.93-1.7 8.7 0 .96.64 1.58 1.67 1.58h.53z"/><path id="zyszq" d="M119.97 190.9c-2.21 0-2.9-1.57-3.11-2.43h6.23c-.21.86-.9 2.43-3.12 2.43z"/><path id="zyszr" d="M122.37 188.98l-.11.2c-.46.81-1.2 1.2-2.29 1.2-1.05 0-1.79-.37-2.25-1.15l-.14-.25h4.79zm-6.11-1.02s.2 3.44 3.71 3.44c3.52 0 3.72-3.44 3.72-3.44z"/><path id="zyszs" d="M113.67 190.9c-2.21 0-2.9-1.57-3.11-2.43h6.23c-.21.86-.9 2.43-3.12 2.43z"/><path id="zyszt" d="M116.07 188.98l-.11.2c-.46.81-1.2 1.2-2.29 1.2-1.05 0-1.79-.37-2.25-1.15l-.14-.25h4.79zm1.32-1.02h-7.43s.2 3.44 3.71 3.44c3.52 0 3.72-3.44 3.72-3.44z"/><path id="zyszu" d="M111.82 186.54h3.71"/><path id="zyszv" d="M112.67 193.66h6.68a2 2 0 0 0 1.17-.38l1.15-.82"/><clipPath id="zyszm"><use fill="#fff" xlink:href="#zysza"/></clipPath><clipPath id="zyszo"><use fill="#fff" xlink:href="#zyszb"/></clipPath></defs><g><g transform="translate(-108 -176)"><use fill="#fff" fill-opacity="0" stroke="#fff" stroke-miterlimit="50" xlink:href="#zyszc"/></g><g transform="translate(-108 -176)"><use fill="#fff" fill-opacity="0" stroke="#fff" stroke-miterlimit="50" stroke-width="1.04" xlink:href="#zyszd"/></g><g transform="translate(-108 -176)"><use fill="#fff" xlink:href="#zysze"/></g><g transform="translate(-108 -176)"><use fill="#fff" xlink:href="#zyszf"/></g><g transform="translate(-108 -176)"><use fill="#fff" xlink:href="#zyszg"/></g><g transform="translate(-108 -176)"><use fill="#fff" xlink:href="#zyszh"/></g><g transform="translate(-108 -176)"><use fill="#fff" fill-opacity="0" stroke="#fff" stroke-miterlimit="50" stroke-width="1.25" xlink:href="#zyszi"/></g><g transform="translate(-108 -176)"><use fill="#fff" fill-opacity="0" stroke="#fff" stroke-miterlimit="50" stroke-width="1.25" xlink:href="#zyszj"/></g><g transform="translate(-108 -176)"><use fill="#fff" xlink:href="#zyszk"/></g><g transform="translate(-108 -176)"><use xlink:href="#zyszl"/><use fill="#fff" fill-opacity="0" stroke="#000" stroke-miterlimit="50" stroke-width="4" clip-path="url(&quot;#zyszm&quot;)" xlink:href="#zyszl"/><use fill="#fff" fill-opacity="0" stroke="#fff" stroke-miterlimit="50" xlink:href="#zyszl"/></g><g transform="translate(-108 -176)"><use fill="#fff" xlink:href="#zyszn"/><use fill="#fff" fill-opacity="0" stroke="#000" stroke-miterlimit="50" stroke-width="4" clip-path="url(&quot;#zyszo&quot;)" xlink:href="#zyszn"/></g><g transform="translate(-108 -176)"><use fill="#fff" xlink:href="#zyszp"/></g><g transform="translate(-108 -176)"><use fill="#fff" xlink:href="#zyszq"/></g><g transform="translate(-108 -176)"><use fill="#fff" xlink:href="#zyszr"/></g><g transform="translate(-108 -176)"><use fill="#fff" xlink:href="#zyszs"/></g><g transform="translate(-108 -176)"><use fill="#fff" xlink:href="#zyszt"/></g><g transform="translate(-108 -176)"><use fill="#fff" fill-opacity="0" stroke="#fff" stroke-miterlimit="50" stroke-width="1.04" xlink:href="#zyszu"/></g><g transform="translate(-108 -176)"><use fill="#fff" fill-opacity="0" stroke="#fff" stroke-miterlimit="50" stroke-width="1.04" xlink:href="#zyszv"/></g></g></svg>