<svg xmlns="http://www.w3.org/2000/svg" width="308.8" height="47"><style></style><linearGradient id="SVGID_1_" gradientUnits="userSpaceOnUse" x1="213.934" y1="25.014" x2="15.452" y2="25.014"><stop offset="0" stop-color="#3600c9"/><stop offset="1" stop-color="#9e00e7"/></linearGradient><path d="M40.5 30.8L25.8 45.5c-2.1 2.1-5.5 2.1-7.6 0L1.6 28.8c-2.1-2.1-2.1-5.5 0-7.6L18.3 4.5c2.1-2.1 5.5-2.1 7.6 0l14.7 14.7c2.1 2.1 5.5 2.1 7.6 0L62.8 4.5c2.1-2.1 5.5-2.1 7.6 0L87 21.2c2.1 2.1 2.1 5.5 0 7.6L70.4 45.5c-2.1 2.1-5.5 2.1-7.6 0L48.1 30.8c-2.1-2.1-5.5-2.1-7.6 0z" fill="url(#SVGID_1_)"/><g><linearGradient id="SVGID_2_" gradientUnits="userSpaceOnUse" x1="276.896" y1="23.162" x2="-11.638" y2="23.162"><stop offset="0" stop-color="#3600c9"/><stop offset="1" stop-color="#9e00e7"/></linearGradient><path d="M122.2 46.3V.7h8.4c1.7 0 2.8.8 3.3 2.3l.7 2.5c.8-.8 1.6-1.5 2.4-2.2.8-.7 1.7-1.2 2.7-1.7 1-.5 2-.9 3.1-1.1 1.1-.3 2.3-.4 3.6-.4 2.8 0 5 .7 6.8 2.1 1.8 1.4 3.2 3.3 4.1 5.7.8-1.4 1.7-2.6 2.8-3.6 1.1-1 2.3-1.8 3.6-2.4 1.3-.6 2.6-1.1 4-1.4 1.4-.3 2.8-.4 4.2-.4 2.6 0 4.9.4 7 1.2 2 .8 3.7 1.9 5.1 3.4 1.4 1.5 2.4 3.3 3.1 5.5s1.1 4.6 1.1 7.3v29h-13.6v-29c0-4.7-2-7.1-6.1-7.1-1.8 0-3.4.6-4.6 1.8-1.2 1.2-1.8 3-1.8 5.3v29h-13.6v-29c0-2.6-.5-4.4-1.5-5.5-1-1.1-2.5-1.6-4.5-1.6-1.2 0-2.4.3-3.5.8-1.1.6-2.1 1.3-3.1 2.2v33h-13.7z" fill="url(#SVGID_2_)"/><linearGradient id="SVGID_3_" gradientUnits="userSpaceOnUse" x1="276.896" y1="23.491" x2="-11.638" y2="23.491"><stop offset="0" stop-color="#3600c9"/><stop offset="1" stop-color="#9e00e7"/></linearGradient><path d="M194 .7h10.9c1 0 1.8.2 2.4.7.7.5 1.1 1 1.3 1.7l4.6 20.5c.4 1.6.7 3.1 1 4.5.3 1.5.5 2.9.8 4.4.4-1.4.8-2.9 1.3-4.4.4-1.5.9-3 1.4-4.5L223.4 3c.2-.7.7-1.2 1.3-1.7.6-.5 1.4-.7 2.3-.7h6.1c1 0 1.8.2 2.4.7.7.5 1.1 1 1.3 1.7l5.5 20.5c.4 1.6.9 3.1 1.3 4.5.4 1.5.8 2.9 1.2 4.4.2-1.5.5-2.9.8-4.4.3-1.5.7-3 1.1-4.6l4.8-20.5c.2-.7.7-1.2 1.3-1.7.6-.5 1.4-.7 2.3-.7h10.4l-14.2 45.6h-11.1c-.6 0-1.1-.2-1.5-.5-.4-.4-.7-.9-1-1.8l-6.5-22.7-.9-3c-.2-1-.5-2-.7-3-.2 1-.4 2-.7 3.1-.2 1-.5 2-.9 3.1L221.6 44c-.4 1.5-1.4 2.3-2.9 2.3h-10.6L194 .7z" fill="url(#SVGID_3_)"/><linearGradient id="SVGID_4_" gradientUnits="userSpaceOnUse" x1="276.896" y1="23.514" x2="-11.638" y2="23.514"><stop offset="0" stop-color="#3600c9"/><stop offset="1" stop-color="#9e00e7"/></linearGradient><path d="M304.8 11.5c-.4.5-.8.9-1.2 1.2-.4.3-.9.4-1.6.4-.7 0-1.3-.2-1.8-.5s-1.2-.7-1.8-1.1c-.7-.4-1.5-.8-2.4-1.1-.9-.3-2-.5-3.4-.5-1.7 0-3.1.3-4.3.9-1.2.6-2.2 1.5-3 2.6-.8 1.1-1.4 2.5-1.8 4.2-.4 1.7-.6 3.5-.6 5.6 0 4.4.8 7.7 2.5 10.1 1.7 2.3 4 3.5 7 3.5 1.6 0 2.8-.2 3.8-.6.9-.4 1.7-.8 2.4-1.3.6-.5 1.2-.9 1.8-1.3.5-.4 1.2-.6 2-.6 1.1 0 1.9.4 2.5 1.2l4 4.9c-1.4 1.6-2.9 2.9-4.4 3.9-1.6 1-3.1 1.8-4.8 2.4-1.6.6-3.3 1-4.9 1.2-1.6.2-3.2.3-4.8.3-2.8 0-5.4-.5-8-1.6-2.5-1.1-4.8-2.6-6.7-4.6-1.9-2-3.4-4.5-4.6-7.4-1.1-2.9-1.7-6.3-1.7-10 0-3.3.5-6.4 1.5-9.2 1-2.9 2.4-5.3 4.4-7.4 1.9-2.1 4.3-3.7 7.1-4.9 2.8-1.2 6.1-1.8 9.8-1.8 3.6 0 6.7.6 9.4 1.7s5.1 2.8 7.3 5l-3.7 4.8z" fill="url(#SVGID_4_)"/></g></svg>